STARTFONT 2.1
FONT -URW-ITC Bookman-Light-I-Normal--14-140-72-72-P-80-ISO8859-1
SIZE 14 72 72
FONTBOUNDINGBOX 24 17 -6 -3

STARTPROPERTIES 22
FONTNAME_REGISTRY "-"
FOUNDRY "URW"
FAMILY_NAME "ITC Bookman"
WEIGHT_NAME "Light"
SLANT "I"
SETWIDTH_NAME "Normal"
ADD_STYLE_NAME ""
PIXEL_SIZE 14
POINT_SIZE 140
RESOLUTION_X 72
RESOLUTION_Y 72
SPACING "P"
CHARSET_REGISTRY "ISO8859"
CHARSET_ENCODING "1"
FULL_NAME "Bookman-LightItalic"
AVERAGE_WIDTH 80
WEIGHT 10
X_HEIGHT 7
QUAD_WIDTH 10
DEFAULT_CHAR 32
FONT_DESCENT 3
FONT_ASCENT 14
ENDPROPERTIES

CHARS 190

STARTCHAR space
ENCODING 32
SWIDTH 300 0
DWIDTH 4 0
BBX 1 1 0 0
BITMAP
00
ENDCHAR

STARTCHAR exclam
ENCODING 33
SWIDTH 320 0
DWIDTH 4 0
BBX 3 10 1 0
BITMAP
20
60
60
60
40
40
40
00
00
C0
ENDCHAR

STARTCHAR quotedbl
ENCODING 34
SWIDTH 360 0
DWIDTH 5 0
BBX 4 3 2 7
BITMAP
50
90
A0
ENDCHAR

STARTCHAR numbersign
ENCODING 35
SWIDTH 620 0
DWIDTH 8 0
BBX 7 10 1 0
BITMAP
24
24
24
FE
28
28
FC
48
48
48
ENDCHAR

STARTCHAR dollar
ENCODING 36
SWIDTH 620 0
DWIDTH 9 0
BBX 8 13 1 -2
BITMAP
04
3F
49
48
48
3C
12
12
92
92
7C
20
20
ENDCHAR

STARTCHAR percent
ENCODING 37
SWIDTH 800 0
DWIDTH 11 0
BBX 11 10 1 0
BITMAP
3100
4900
8A00
8AC0
8D20
9620
6A20
1A20
1240
2180
ENDCHAR

STARTCHAR ampersand
ENCODING 38
SWIDTH 820 0
DWIDTH 11 0
BBX 11 10 1 0
BITMAP
0C00
1200
1200
1400
3980
4480
8280
8320
8320
7DC0
ENDCHAR

STARTCHAR quoteright
ENCODING 39
SWIDTH 280 0
DWIDTH 4 0
BBX 2 3 2 7
BITMAP
C0
40
80
ENDCHAR

STARTCHAR parenleft
ENCODING 40
SWIDTH 280 0
DWIDTH 4 0
BBX 4 12 1 -2
BITMAP
10
20
40
40
40
C0
80
80
80
80
80
40
ENDCHAR

STARTCHAR parenright
ENCODING 41
SWIDTH 280 0
DWIDTH 4 0
BBX 4 12 0 -2
BITMAP
20
10
10
10
10
10
30
20
20
20
40
80
ENDCHAR

STARTCHAR asterisk
ENCODING 42
SWIDTH 440 0
DWIDTH 6 0
BBX 5 6 2 4
BITMAP
50
F8
70
F8
A8
20
ENDCHAR

STARTCHAR plus
ENCODING 43
SWIDTH 600 0
DWIDTH 8 0
BBX 7 7 1 1
BITMAP
10
10
10
FE
10
10
10
ENDCHAR

STARTCHAR comma
ENCODING 44
SWIDTH 300 0
DWIDTH 4 0
BBX 2 2 1 -1
BITMAP
C0
80
ENDCHAR

STARTCHAR minus
ENCODING 45
SWIDTH 600 0
DWIDTH 8 0
BBX 7 1 1 4
BITMAP
FE
ENDCHAR

STARTCHAR period
ENCODING 46
SWIDTH 300 0
DWIDTH 4 0
BBX 2 1 1 0
BITMAP
C0
ENDCHAR

STARTCHAR slash
ENCODING 47
SWIDTH 600 0
DWIDTH 8 0
BBX 6 12 1 -2
BITMAP
04
04
08
08
10
10
30
20
20
40
40
80
ENDCHAR

STARTCHAR zero
ENCODING 48
SWIDTH 620 0
DWIDTH 9 0
BBX 8 10 1 0
BITMAP
1C
22
41
41
81
81
82
82
44
78
ENDCHAR

STARTCHAR one
ENCODING 49
SWIDTH 620 0
DWIDTH 9 0
BBX 5 10 2 0
BITMAP
38
08
08
10
10
10
20
20
20
F8
ENDCHAR

STARTCHAR two
ENCODING 50
SWIDTH 620 0
DWIDTH 9 0
BBX 8 10 1 0
BITMAP
1E
21
41
41
02
04
08
31
42
FE
ENDCHAR

STARTCHAR three
ENCODING 51
SWIDTH 620 0
DWIDTH 9 0
BBX 8 10 1 0
BITMAP
1E
21
41
02
1E
01
01
82
86
78
ENDCHAR

STARTCHAR four
ENCODING 52
SWIDTH 620 0
DWIDTH 9 0
BBX 8 10 1 0
BITMAP
04
0C
14
14
24
44
84
FF
04
1E
ENDCHAR

STARTCHAR five
ENCODING 53
SWIDTH 620 0
DWIDTH 9 0
BBX 8 10 1 0
BITMAP
7F
40
40
7C
02
02
02
82
84
78
ENDCHAR

STARTCHAR six
ENCODING 54
SWIDTH 620 0
DWIDTH 9 0
BBX 8 10 1 0
BITMAP
1E
21
40
40
FC
82
82
82
84
78
ENDCHAR

STARTCHAR seven
ENCODING 55
SWIDTH 620 0
DWIDTH 9 0
BBX 7 10 2 0
BITMAP
7E
82
04
08
08
10
20
40
40
40
ENDCHAR

STARTCHAR eight
ENCODING 56
SWIDTH 620 0
DWIDTH 9 0
BBX 8 10 1 0
BITMAP
1E
21
41
42
3C
42
81
81
82
7C
ENDCHAR

STARTCHAR nine
ENCODING 57
SWIDTH 620 0
DWIDTH 9 0
BBX 8 10 1 0
BITMAP
1E
21
41
41
41
47
3A
02
84
78
ENDCHAR

STARTCHAR colon
ENCODING 58
SWIDTH 300 0
DWIDTH 4 0
BBX 3 7 1 0
BITMAP
60
00
00
00
00
00
C0
ENDCHAR

STARTCHAR semicolon
ENCODING 59
SWIDTH 300 0
DWIDTH 4 0
BBX 3 8 1 -1
BITMAP
60
00
00
00
00
00
C0
80
ENDCHAR

STARTCHAR less
ENCODING 60
SWIDTH 600 0
DWIDTH 8 0
BBX 7 7 1 0
BITMAP
02
0C
70
C0
70
0C
02
ENDCHAR

STARTCHAR equal
ENCODING 61
SWIDTH 600 0
DWIDTH 8 0
BBX 7 4 1 3
BITMAP
FE
00
00
FE
ENDCHAR

STARTCHAR greater
ENCODING 62
SWIDTH 600 0
DWIDTH 8 0
BBX 7 7 1 0
BITMAP
80
60
1C
02
1C
60
80
ENDCHAR

STARTCHAR question
ENCODING 63
SWIDTH 540 0
DWIDTH 8 0
BBX 7 10 2 0
BITMAP
3C
46
86
C4
18
20
20
00
00
60
ENDCHAR

STARTCHAR at
ENCODING 64
SWIDTH 780 0
DWIDTH 11 0
BBX 10 10 1 0
BITMAP
1E00
6180
5D80
B240
A240
A240
A680
7B40
6180
1E00
ENDCHAR

STARTCHAR A
ENCODING 65
SWIDTH 700 0
DWIDTH 10 0
BBX 10 10 0 0
BITMAP
0200
0500
0500
0900
0900
1100
1F80
2180
6080
F1C0
ENDCHAR

STARTCHAR B
ENCODING 66
SWIDTH 720 0
DWIDTH 10 0
BBX 10 10 0 0
BITMAP
3F80
10C0
1040
30C0
3F00
2080
20C0
20C0
6180
FF00
ENDCHAR

STARTCHAR C
ENCODING 67
SWIDTH 720 0
DWIDTH 10 0
BBX 9 10 1 0
BITMAP
1F80
3180
6080
4080
C000
C000
C000
C080
6100
3E00
ENDCHAR

STARTCHAR D
ENCODING 68
SWIDTH 740 0
DWIDTH 10 0
BBX 11 10 0 0
BITMAP
3F80
10C0
1040
3060
3060
2060
2040
20C0
6180
FE00
ENDCHAR

STARTCHAR E
ENCODING 69
SWIDTH 680 0
DWIDTH 10 0
BBX 10 10 0 0
BITMAP
3FC0
10C0
1040
3240
3200
3E00
2400
24C0
6180
FF00
ENDCHAR

STARTCHAR F
ENCODING 70
SWIDTH 620 0
DWIDTH 9 0
BBX 10 10 0 0
BITMAP
3FC0
10C0
1040
3240
3200
3E00
2200
2200
6000
F000
ENDCHAR

STARTCHAR G
ENCODING 71
SWIDTH 760 0
DWIDTH 11 0
BBX 10 10 1 0
BITMAP
1E80
3180
6080
C080
C000
C3C0
C180
C180
6300
3D00
ENDCHAR

STARTCHAR H
ENCODING 72
SWIDTH 800 0
DWIDTH 11 0
BBX 12 10 0 0
BITMAP
3CF0
1060
1060
3040
3FC0
2040
20C0
20C0
60C0
F3C0
ENDCHAR

STARTCHAR I
ENCODING 73
SWIDTH 320 0
DWIDTH 4 0
BBX 5 10 0 0
BITMAP
38
10
10
30
30
20
20
20
60
F0
ENDCHAR

STARTCHAR J
ENCODING 74
SWIDTH 560 0
DWIDTH 8 0
BBX 9 10 0 0
BITMAP
0780
0300
0300
0300
0200
0200
C200
8600
8400
7800
ENDCHAR

STARTCHAR K
ENCODING 75
SWIDTH 720 0
DWIDTH 10 0
BBX 11 10 0 0
BITMAP
3DE0
10C0
1100
3600
3C00
3600
2200
2100
6100
F3C0
ENDCHAR

STARTCHAR L
ENCODING 76
SWIDTH 580 0
DWIDTH 8 0
BBX 9 10 0 0
BITMAP
3C00
1000
1000
3000
3000
2000
2080
2100
6300
FF00
ENDCHAR

STARTCHAR M
ENCODING 77
SWIDTH 860 0
DWIDTH 12 0
BBX 13 10 0 0
BITMAP
3838
2870
2870
28A0
2CA0
2D20
2F60
2660
4440
E4E0
ENDCHAR

STARTCHAR N
ENCODING 78
SWIDTH 720 0
DWIDTH 10 0
BBX 11 10 0 0
BITMAP
38E0
2840
2C40
2440
2480
2280
2280
2280
4180
E100
ENDCHAR

STARTCHAR O
ENCODING 79
SWIDTH 760 0
DWIDTH 11 0
BBX 10 10 1 0
BITMAP
0F00
3180
60C0
40C0
C0C0
C0C0
C080
C180
6300
3C00
ENDCHAR

STARTCHAR P
ENCODING 80
SWIDTH 600 0
DWIDTH 8 0
BBX 9 10 0 0
BITMAP
3F00
1080
1080
3080
3180
3F00
2000
2000
6000
F000
ENDCHAR

STARTCHAR Q
ENCODING 81
SWIDTH 780 0
DWIDTH 11 0
BBX 11 13 1 -3
BITMAP
0F80
30C0
6040
4040
C060
C040
C040
C0C0
6E80
FF80
C180
4300
3E00
ENDCHAR

STARTCHAR R
ENCODING 82
SWIDTH 700 0
DWIDTH 10 0
BBX 10 10 0 0
BITMAP
3F80
10C0
10C0
30C0
30C0
3F80
2200
2300
6100
F0C0
ENDCHAR

STARTCHAR S
ENCODING 83
SWIDTH 640 0
DWIDTH 9 0
BBX 9 10 1 0
BITMAP
1F00
6100
6100
6080
3C00
0700
8100
8100
C300
BC00
ENDCHAR

STARTCHAR T
ENCODING 84
SWIDTH 600 0
DWIDTH 8 0
BBX 9 10 1 0
BITMAP
7F80
4C80
8880
0800
0800
1800
1800
1800
1000
7C00
ENDCHAR

STARTCHAR U
ENCODING 85
SWIDTH 720 0
DWIDTH 10 0
BBX 10 10 2 0
BITMAP
F1C0
6080
4080
4100
4100
C100
C100
C100
C200
7C00
ENDCHAR

STARTCHAR V
ENCODING 86
SWIDTH 680 0
DWIDTH 10 0
BBX 10 10 1 0
BITMAP
F1C0
6080
6100
2100
2200
2600
3400
3800
1800
1000
ENDCHAR

STARTCHAR W
ENCODING 87
SWIDTH 960 0
DWIDTH 13 0
BBX 14 10 1 0
BITMAP
F79C
6308
6310
6310
2520
2520
2940
2940
3180
3180
ENDCHAR

STARTCHAR X
ENCODING 88
SWIDTH 700 0
DWIDTH 10 0
BBX 12 10 0 0
BITMAP
3CF0
0840
0880
0500
0600
0E00
1900
3100
6180
F3E0
ENDCHAR

STARTCHAR Y
ENCODING 89
SWIDTH 660 0
DWIDTH 9 0
BBX 10 10 1 0
BITMAP
F3C0
6180
2300
3200
1400
1800
1000
1000
1000
7800
ENDCHAR

STARTCHAR Z
ENCODING 90
SWIDTH 580 0
DWIDTH 8 0
BBX 10 10 0 0
BITMAP
3FC0
3180
6300
0600
0400
0800
1000
2080
4100
FF00
ENDCHAR

STARTCHAR bracketleft
ENCODING 91
SWIDTH 260 0
DWIDTH 4 0
BBX 4 12 1 -2
BITMAP
30
20
20
20
40
40
40
40
40
80
80
C0
ENDCHAR

STARTCHAR backslash
ENCODING 92
SWIDTH 600 0
DWIDTH 8 0
BBX 6 12 1 -2
BITMAP
80
40
40
20
20
30
10
10
08
08
04
04
ENDCHAR

STARTCHAR bracketright
ENCODING 93
SWIDTH 260 0
DWIDTH 4 0
BBX 4 12 0 -2
BITMAP
30
10
10
10
20
20
20
20
20
40
40
C0
ENDCHAR

STARTCHAR asciicircum
ENCODING 94
SWIDTH 600 0
DWIDTH 8 0
BBX 7 5 1 5
BITMAP
10
28
6C
44
C2
ENDCHAR

STARTCHAR underscore
ENCODING 95
SWIDTH 500 0
DWIDTH 7 0
BBX 7 1 0 -2
BITMAP
FE
ENDCHAR

STARTCHAR quoteleft
ENCODING 96
SWIDTH 280 0
DWIDTH 4 0
BBX 2 3 3 7
BITMAP
40
80
C0
ENDCHAR

STARTCHAR a
ENCODING 97
SWIDTH 620 0
DWIDTH 9 0
BBX 9 7 1 0
BITMAP
3E00
6200
C200
C600
8E00
CE80
7300
ENDCHAR

STARTCHAR b
ENCODING 98
SWIDTH 600 0
DWIDTH 8 0
BBX 7 10 1 0
BITMAP
E0
60
60
5E
62
62
42
C2
C4
B8
ENDCHAR

STARTCHAR c
ENCODING 99
SWIDTH 480 0
DWIDTH 7 0
BBX 6 7 1 0
BITMAP
3C
64
C4
C0
80
C4
78
ENDCHAR

STARTCHAR d
ENCODING 100
SWIDTH 640 0
DWIDTH 9 0
BBX 9 10 1 0
BITMAP
0700
0100
0300
3F00
6200
C200
C200
8600
CE80
7300
ENDCHAR

STARTCHAR e
ENCODING 101
SWIDTH 540 0
DWIDTH 8 0
BBX 7 7 1 0
BITMAP
1E
62
46
FC
C0
C6
78
ENDCHAR

STARTCHAR f
ENCODING 102
SWIDTH 340 0
DWIDTH 5 0
BBX 10 13 -1 -3
BITMAP
01C0
0200
0600
0F00
0400
0400
0400
0400
0C00
0C00
0800
0800
F000
ENDCHAR

STARTCHAR g
ENCODING 103
SWIDTH 560 0
DWIDTH 8 0
BBX 8 10 0 -3
BITMAP
1D
33
63
42
42
46
3A
06
0C
F8
ENDCHAR

STARTCHAR h
ENCODING 104
SWIDTH 620 0
DWIDTH 9 0
BBX 8 10 1 0
BITMAP
E0
60
60
5E
62
42
46
C4
C5
87
ENDCHAR

STARTCHAR i
ENCODING 105
SWIDTH 280 0
DWIDTH 4 0
BBX 4 10 1 0
BITMAP
20
00
00
E0
40
40
40
C0
D0
60
ENDCHAR

STARTCHAR j
ENCODING 106
SWIDTH 280 0
DWIDTH 4 0
BBX 7 13 -2 -3
BITMAP
06
00
00
0E
04
04
04
04
0C
08
08
18
F0
ENDCHAR

STARTCHAR k
ENCODING 107
SWIDTH 600 0
DWIDTH 8 0
BBX 8 10 1 0
BITMAP
E0
60
60
47
48
58
78
C8
CC
87
ENDCHAR

STARTCHAR l
ENCODING 108
SWIDTH 280 0
DWIDTH 4 0
BBX 3 10 1 0
BITMAP
E0
60
40
40
40
40
C0
80
A0
E0
ENDCHAR

STARTCHAR m
ENCODING 109
SWIDTH 880 0
DWIDTH 12 0
BBX 12 7 1 0
BITMAP
FDE0
6620
4620
4460
4440
C440
8C70
ENDCHAR

STARTCHAR n
ENCODING 110
SWIDTH 620 0
DWIDTH 9 0
BBX 9 7 1 0
BITMAP
FE00
6200
4200
4600
4400
C480
8700
ENDCHAR

STARTCHAR o
ENCODING 111
SWIDTH 540 0
DWIDTH 8 0
BBX 7 7 1 0
BITMAP
3C
66
C2
82
86
CC
78
ENDCHAR

STARTCHAR p
ENCODING 112
SWIDTH 600 0
DWIDTH 8 0
BBX 9 10 0 -3
BITMAP
3700
1880
1080
3080
2180
2300
3E00
2000
6000
F000
ENDCHAR

STARTCHAR q
ENCODING 113
SWIDTH 560 0
DWIDTH 8 0
BBX 7 10 1 -3
BITMAP
3E
62
C2
86
84
CC
74
04
0C
1E
ENDCHAR

STARTCHAR r
ENCODING 114
SWIDTH 400 0
DWIDTH 6 0
BBX 6 7 1 0
BITMAP
FC
60
40
40
40
C0
80
ENDCHAR

STARTCHAR s
ENCODING 115
SWIDTH 540 0
DWIDTH 8 0
BBX 7 7 1 0
BITMAP
3C
66
60
3C
84
C4
78
ENDCHAR

STARTCHAR t
ENCODING 116
SWIDTH 340 0
DWIDTH 5 0
BBX 5 10 1 0
BITMAP
20
20
20
F8
40
40
40
C0
D0
E0
ENDCHAR

STARTCHAR u
ENCODING 117
SWIDTH 620 0
DWIDTH 9 0
BBX 8 7 1 0
BITMAP
E2
42
42
46
C4
CD
77
ENDCHAR

STARTCHAR v
ENCODING 118
SWIDTH 540 0
DWIDTH 8 0
BBX 7 7 1 0
BITMAP
E4
46
42
42
44
C8
70
ENDCHAR

STARTCHAR w
ENCODING 119
SWIDTH 880 0
DWIDTH 12 0
BBX 11 7 1 0
BITMAP
E260
4220
4220
4620
C420
CC40
7780
ENDCHAR

STARTCHAR x
ENCODING 120
SWIDTH 540 0
DWIDTH 8 0
BBX 9 7 0 0
BITMAP
3180
1600
1400
1800
1800
2400
C700
ENDCHAR

STARTCHAR y
ENCODING 121
SWIDTH 600 0
DWIDTH 8 0
BBX 8 10 1 -3
BITMAP
E3
62
42
42
42
46
7E
04
0C
F8
ENDCHAR

STARTCHAR z
ENCODING 122
SWIDTH 520 0
DWIDTH 7 0
BBX 7 7 1 0
BITMAP
3E
64
48
10
22
46
FC
ENDCHAR

STARTCHAR braceleft
ENCODING 123
SWIDTH 360 0
DWIDTH 5 0
BBX 4 12 2 -2
BITMAP
10
20
20
40
40
40
C0
40
40
80
80
40
ENDCHAR

STARTCHAR bar
ENCODING 124
SWIDTH 600 0
DWIDTH 8 0
BBX 1 10 4 0
BITMAP
80
80
80
80
80
80
80
80
80
80
ENDCHAR

STARTCHAR braceright
ENCODING 125
SWIDTH 380 0
DWIDTH 5 0
BBX 4 12 0 -2
BITMAP
30
10
10
10
10
10
10
20
20
20
60
C0
ENDCHAR

STARTCHAR asciitilde
ENCODING 126
SWIDTH 600 0
DWIDTH 8 0
BBX 7 2 1 2
BITMAP
72
9C
ENDCHAR

STARTCHAR exclamdown
ENCODING 161
SWIDTH 320 0
DWIDTH 4 0
BBX 3 10 1 -3
BITMAP
60
00
00
40
40
40
40
C0
C0
C0
ENDCHAR

STARTCHAR cent
ENCODING 162
SWIDTH 620 0
DWIDTH 9 0
BBX 6 10 2 0
BITMAP
08
08
3C
54
D4
90
D4
78
20
20
ENDCHAR

STARTCHAR sterling
ENCODING 163
SWIDTH 620 0
DWIDTH 9 0
BBX 10 10 0 0
BITMAP
0780
0840
0840
0880
0800
7E00
0800
0980
7880
C700
ENDCHAR

STARTCHAR currency
ENCODING 164
SWIDTH 620 0
DWIDTH 8 0
BBX 7 7 1 1
BITMAP
BA
44
82
82
82
44
BA
ENDCHAR

STARTCHAR yen
ENCODING 165
SWIDTH 620 0
DWIDTH 9 0
BBX 9 10 1 0
BITMAP
7380
2100
2200
1200
F700
1800
FF00
1000
1000
7800
ENDCHAR

STARTCHAR brokenbar
ENCODING 166
SWIDTH 600 0
DWIDTH 8 0
BBX 1 10 4 0
BITMAP
80
80
80
80
00
00
80
80
80
80
ENDCHAR

STARTCHAR section
ENCODING 167
SWIDTH 620 0
DWIDTH 9 0
BBX 8 13 1 -3
BITMAP
1E
31
21
20
3C
43
41
71
1E
02
C2
86
7C
ENDCHAR

STARTCHAR dieresis
ENCODING 168
SWIDTH 420 0
DWIDTH 6 0
BBX 4 1 3 9
BITMAP
F0
ENDCHAR

STARTCHAR copyright
ENCODING 169
SWIDTH 740 0
DWIDTH 10 0
BBX 10 10 0 0
BITMAP
1E00
6180
4E80
9940
9140
9040
9940
4E80
6180
1E00
ENDCHAR

STARTCHAR ordfeminine
ENCODING 170
SWIDTH 440 0
DWIDTH 6 0
BBX 6 6 1 4
BITMAP
38
48
48
58
2C
FC
ENDCHAR

STARTCHAR guillemotleft
ENCODING 171
SWIDTH 300 0
DWIDTH 4 0
BBX 4 4 1 1
BITMAP
50
A0
A0
50
ENDCHAR

STARTCHAR logicalnot
ENCODING 172
SWIDTH 600 0
DWIDTH 8 0
BBX 7 4 1 1
BITMAP
FE
02
02
02
ENDCHAR

STARTCHAR hyphen
ENCODING 173
SWIDTH 320 0
DWIDTH 4 0
BBX 3 1 1 3
BITMAP
E0
ENDCHAR

STARTCHAR registered
ENCODING 174
SWIDTH 740 0
DWIDTH 10 0
BBX 10 10 0 0
BITMAP
1E00
6180
7C80
9240
9240
9E40
9640
7B80
6180
1E00
ENDCHAR

STARTCHAR macron
ENCODING 175
SWIDTH 440 0
DWIDTH 6 0
BBX 4 1 2 8
BITMAP
F0
ENDCHAR

STARTCHAR degree
ENCODING 176
SWIDTH 400 0
DWIDTH 5 0
BBX 5 5 1 5
BITMAP
70
88
88
88
70
ENDCHAR

STARTCHAR plusminus
ENCODING 177
SWIDTH 600 0
DWIDTH 8 0
BBX 7 7 1 0
BITMAP
10
10
FE
10
10
00
FE
ENDCHAR

STARTCHAR twosuperior
ENCODING 178
SWIDTH 372 0
DWIDTH 5 0
BBX 5 6 -6 4
BITMAP
70
48
50
30
60
F8
ENDCHAR

STARTCHAR threesuperior
ENCODING 179
SWIDTH 372 0
DWIDTH 5 0
BBX 5 6 -6 4
BITMAP
70
48
30
10
90
E0
ENDCHAR

STARTCHAR acute
ENCODING 180
SWIDTH 320 0
DWIDTH 4 0
BBX 3 2 2 8
BITMAP
60
C0
ENDCHAR

STARTCHAR mu
ENCODING 181
SWIDTH 620 0
DWIDTH 9 0
BBX 9 10 0 -3
BITMAP
6100
2100
2200
4200
4200
4680
7B00
4000
8000
8000
ENDCHAR

STARTCHAR paragraph
ENCODING 182
SWIDTH 620 0
DWIDTH 9 0
BBX 8 10 2 0
BITMAP
3F
7A
F2
F2
F2
74
14
24
24
7E
ENDCHAR

STARTCHAR periodcentered
ENCODING 183
SWIDTH 300 0
DWIDTH 7 0
BBX 2 2 3 4
BITMAP
C0
C0
ENDCHAR

STARTCHAR cedilla
ENCODING 184
SWIDTH 320 0
DWIDTH 4 0
BBX 3 4 1 -2
BITMAP
40
60
20
C0
ENDCHAR

STARTCHAR onesuperior
ENCODING 185
SWIDTH 372 0
DWIDTH 5 0
BBX 3 6 -6 4
BITMAP
60
40
40
40
40
E0
ENDCHAR

STARTCHAR ordmasculine
ENCODING 186
SWIDTH 400 0
DWIDTH 6 0
BBX 5 6 1 4
BITMAP
38
48
48
70
00
F8
ENDCHAR

STARTCHAR guillemotright
ENCODING 187
SWIDTH 300 0
DWIDTH 4 0
BBX 4 4 1 1
BITMAP
A0
50
50
A0
ENDCHAR

STARTCHAR onequarter
ENCODING 188
SWIDTH 930 0
DWIDTH 11 0
BBX 10 10 -6 0
BITMAP
C180
4100
4200
4200
4480
E980
1280
1480
27C0
4080
ENDCHAR

STARTCHAR onehalf
ENCODING 189
SWIDTH 930 0
DWIDTH 11 0
BBX 10 10 -6 0
BITMAP
C180
4100
4200
4400
4580
EA40
1080
1100
2200
47C0
ENDCHAR

STARTCHAR threequarters
ENCODING 190
SWIDTH 930 0
DWIDTH 11 0
BBX 10 10 -6 0
BITMAP
7180
0900
3200
1400
9480
E980
1280
1480
27C0
4080
ENDCHAR

STARTCHAR questiondown
ENCODING 191
SWIDTH 540 0
DWIDTH 8 0
BBX 7 10 0 -3
BITMAP
0C
00
00
08
08
30
C6
86
C4
78
ENDCHAR

STARTCHAR Agrave
ENCODING 192
SWIDTH 700 0
DWIDTH 10 0
BBX 10 13 0 0
BITMAP
0400
0300
0000
0200
0500
0500
0900
0900
1100
1F80
2180
6080
F1C0
ENDCHAR

STARTCHAR Aacute
ENCODING 193
SWIDTH 700 0
DWIDTH 10 0
BBX 10 13 0 0
BITMAP
0300
0600
0000
0200
0500
0500
0900
0900
1100
1F80
2180
6080
F1C0
ENDCHAR

STARTCHAR Acircumflex
ENCODING 194
SWIDTH 700 0
DWIDTH 10 0
BBX 10 13 0 0
BITMAP
0300
0680
0000
0200
0500
0500
0900
0900
1100
1F80
2180
6080
F1C0
ENDCHAR

STARTCHAR Atilde
ENCODING 195
SWIDTH 700 0
DWIDTH 10 0
BBX 10 12 0 0
BITMAP
0780
0000
0200
0500
0500
0900
0900
1100
1F80
2180
6080
F1C0
ENDCHAR

STARTCHAR Adieresis
ENCODING 196
SWIDTH 700 0
DWIDTH 10 0
BBX 10 12 0 0
BITMAP
0780
0000
0200
0500
0500
0900
0900
1100
1F80
2180
6080
F1C0
ENDCHAR

STARTCHAR Aring
ENCODING 197
SWIDTH 700 0
DWIDTH 10 0
BBX 10 14 0 0
BITMAP
0300
0300
0300
0000
0200
0500
0500
0900
0900
1100
1F80
2180
6080
F1C0
ENDCHAR

STARTCHAR AE
ENCODING 198
SWIDTH 1220 0
DWIDTH 17 0
BBX 18 10 0 0
BITMAP
003FC0
0078C0
00D240
019200
03FE00
063200
083200
102040
202180
F8FF80
ENDCHAR

STARTCHAR Ccedilla
ENCODING 199
SWIDTH 720 0
DWIDTH 10 0
BBX 9 12 1 -2
BITMAP
1F80
3180
6080
4080
C000
C000
C000
C080
7100
3E00
0800
3000
ENDCHAR

STARTCHAR Egrave
ENCODING 200
SWIDTH 680 0
DWIDTH 10 0
BBX 10 13 0 0
BITMAP
0400
0300
0000
3FC0
10C0
1040
3240
3200
3E00
2400
24C0
6180
FF00
ENDCHAR

STARTCHAR Eacute
ENCODING 201
SWIDTH 680 0
DWIDTH 10 0
BBX 10 13 0 0
BITMAP
0300
0600
0000
3FC0
10C0
1040
3240
3200
3E00
2400
24C0
6180
FF00
ENDCHAR

STARTCHAR Ecircumflex
ENCODING 202
SWIDTH 680 0
DWIDTH 10 0
BBX 10 13 0 0
BITMAP
0600
0D00
0000
3FC0
10C0
1040
3240
3200
3E00
2400
24C0
6180
FF00
ENDCHAR

STARTCHAR Edieresis
ENCODING 203
SWIDTH 680 0
DWIDTH 10 0
BBX 10 12 0 0
BITMAP
0F00
0000
3FC0
10C0
1040
3240
3200
3E00
2400
24C0
6180
FF00
ENDCHAR

STARTCHAR Igrave
ENCODING 204
SWIDTH 320 0
DWIDTH 4 0
BBX 5 13 0 0
BITMAP
20
18
00
38
10
10
30
30
20
20
20
60
F0
ENDCHAR

STARTCHAR Iacute
ENCODING 205
SWIDTH 320 0
DWIDTH 4 0
BBX 5 13 0 0
BITMAP
18
30
00
38
10
10
30
30
20
20
20
60
F0
ENDCHAR

STARTCHAR Icircumflex
ENCODING 206
SWIDTH 320 0
DWIDTH 4 0
BBX 5 13 0 0
BITMAP
30
68
00
38
10
10
30
30
20
20
20
60
F0
ENDCHAR

STARTCHAR Idieresis
ENCODING 207
SWIDTH 320 0
DWIDTH 4 0
BBX 6 12 0 0
BITMAP
3C
00
38
10
10
30
30
20
20
20
60
F0
ENDCHAR

STARTCHAR Eth
ENCODING 208
SWIDTH 740 0
DWIDTH 10 0
BBX 11 10 0 0
BITMAP
3F80
10C0
1040
3060
3060
7C60
2040
20C0
6180
FE00
ENDCHAR

STARTCHAR Ntilde
ENCODING 209
SWIDTH 720 0
DWIDTH 10 0
BBX 11 12 0 0
BITMAP
0F00
0000
38E0
2840
2C40
2440
2480
2280
2280
2280
4180
E100
ENDCHAR

STARTCHAR Ograve
ENCODING 210
SWIDTH 760 0
DWIDTH 11 0
BBX 10 13 1 0
BITMAP
0800
0600
0000
0F00
3180
60C0
40C0
C0C0
C0C0
C080
C180
6300
3C00
ENDCHAR

STARTCHAR Oacute
ENCODING 211
SWIDTH 760 0
DWIDTH 11 0
BBX 10 13 1 0
BITMAP
0600
0C00
0000
0F00
3180
60C0
40C0
C0C0
C0C0
C080
C180
6300
3C00
ENDCHAR

STARTCHAR Ocircumflex
ENCODING 212
SWIDTH 760 0
DWIDTH 11 0
BBX 10 13 1 0
BITMAP
0C00
1A00
0000
0F00
3180
60C0
40C0
C0C0
C0C0
C080
C180
6300
3C00
ENDCHAR

STARTCHAR Otilde
ENCODING 213
SWIDTH 760 0
DWIDTH 11 0
BBX 10 12 1 0
BITMAP
0F00
0000
0F00
3180
60C0
40C0
C0C0
C0C0
C080
C180
6300
3C00
ENDCHAR

STARTCHAR Odieresis
ENCODING 214
SWIDTH 760 0
DWIDTH 11 0
BBX 10 12 1 0
BITMAP
0F00
0000
0F00
3180
60C0
40C0
C0C0
C0C0
C080
C180
6300
3C00
ENDCHAR

STARTCHAR multiply
ENCODING 215
SWIDTH 600 0
DWIDTH 8 0
BBX 6 6 2 2
BITMAP
84
48
30
30
48
84
ENDCHAR

STARTCHAR Oslash
ENCODING 216
SWIDTH 760 0
DWIDTH 11 0
BBX 10 11 1 0
BITMAP
0040
0F80
3180
63C0
42C0
C4C0
C8C0
D880
D180
6300
7C00
ENDCHAR

STARTCHAR Ugrave
ENCODING 217
SWIDTH 720 0
DWIDTH 10 0
BBX 10 13 2 0
BITMAP
0800
0600
0000
F1C0
6080
4080
4100
4100
C100
C100
C100
C200
7C00
ENDCHAR

STARTCHAR Uacute
ENCODING 218
SWIDTH 720 0
DWIDTH 10 0
BBX 10 13 2 0
BITMAP
0600
0C00
0000
F1C0
6080
4080
4100
4100
C100
C100
C100
C200
7C00
ENDCHAR

STARTCHAR Ucircumflex
ENCODING 219
SWIDTH 720 0
DWIDTH 10 0
BBX 10 13 2 0
BITMAP
0C00
1A00
0000
F1C0
6080
4080
4100
4100
C100
C100
C100
C200
7C00
ENDCHAR

STARTCHAR Udieresis
ENCODING 220
SWIDTH 720 0
DWIDTH 10 0
BBX 10 12 2 0
BITMAP
1E00
0000
F1C0
6080
4080
4100
4100
C100
C100
C100
C200
7C00
ENDCHAR

STARTCHAR Yacute
ENCODING 221
SWIDTH 660 0
DWIDTH 9 0
BBX 10 13 1 0
BITMAP
0600
0C00
0000
F3C0
6180
2300
3200
1400
1800
1000
1000
1000
7800
ENDCHAR

STARTCHAR Thorn
ENCODING 222
SWIDTH 600 0
DWIDTH 8 0
BBX 9 10 0 0
BITMAP
3C00
1000
1F00
3180
3180
2180
2300
3E00
6000
F000
ENDCHAR

STARTCHAR germandbls
ENCODING 223
SWIDTH 620 0
DWIDTH 9 0
BBX 11 11 -1 -1
BITMAP
03C0
0620
0C40
0880
0880
08C0
0860
0820
0840
1380
E000
ENDCHAR

STARTCHAR agrave
ENCODING 224
SWIDTH 620 0
DWIDTH 9 0
BBX 9 10 1 0
BITMAP
1000
0C00
0000
3E00
6200
C200
C600
8E00
CE80
7300
ENDCHAR

STARTCHAR aacute
ENCODING 225
SWIDTH 620 0
DWIDTH 9 0
BBX 9 10 1 0
BITMAP
0600
0C00
0000
3E00
6200
C200
C600
8E00
CE80
7300
ENDCHAR

STARTCHAR acircumflex
ENCODING 226
SWIDTH 620 0
DWIDTH 9 0
BBX 9 10 1 0
BITMAP
0C00
1A00
0000
3E00
6200
C200
C600
8E00
CE80
7300
ENDCHAR

STARTCHAR atilde
ENCODING 227
SWIDTH 620 0
DWIDTH 9 0
BBX 9 9 1 0
BITMAP
1E00
0000
3E00
6200
C200
C600
8E00
CE80
7300
ENDCHAR

STARTCHAR adieresis
ENCODING 228
SWIDTH 620 0
DWIDTH 9 0
BBX 9 9 1 0
BITMAP
1E00
0000
3E00
6200
C200
C600
8E00
CE80
7300
ENDCHAR

STARTCHAR aring
ENCODING 229
SWIDTH 620 0
DWIDTH 9 0
BBX 9 11 1 0
BITMAP
0C00
0C00
0C00
0000
3E00
6200
C200
C600
8E00
CE80
7300
ENDCHAR

STARTCHAR ae
ENCODING 230
SWIDTH 880 0
DWIDTH 12 0
BBX 12 7 1 0
BITMAP
3DE0
6730
4630
3FC0
C400
8E20
F3C0
ENDCHAR

STARTCHAR ccedilla
ENCODING 231
SWIDTH 480 0
DWIDTH 7 0
BBX 6 9 1 -2
BITMAP
3C
64
C4
C0
80
E4
78
10
60
ENDCHAR

STARTCHAR egrave
ENCODING 232
SWIDTH 540 0
DWIDTH 8 0
BBX 7 10 1 0
BITMAP
10
0C
00
1E
62
46
FC
C0
C6
78
ENDCHAR

STARTCHAR eacute
ENCODING 233
SWIDTH 540 0
DWIDTH 8 0
BBX 7 10 1 0
BITMAP
0C
18
00
1E
62
46
FC
C0
C6
78
ENDCHAR

STARTCHAR ecircumflex
ENCODING 234
SWIDTH 540 0
DWIDTH 8 0
BBX 7 10 1 0
BITMAP
18
34
00
1E
62
46
FC
C0
C6
78
ENDCHAR

STARTCHAR edieresis
ENCODING 235
SWIDTH 540 0
DWIDTH 8 0
BBX 7 9 1 0
BITMAP
1E
00
1E
62
46
FC
C0
C6
78
ENDCHAR

STARTCHAR igrave
ENCODING 236
SWIDTH 280 0
DWIDTH 4 0
BBX 4 10 1 0
BITMAP
40
30
00
E0
40
40
40
C0
D0
60
ENDCHAR

STARTCHAR iacute
ENCODING 237
SWIDTH 280 0
DWIDTH 4 0
BBX 4 10 1 0
BITMAP
30
60
00
E0
40
40
40
C0
D0
60
ENDCHAR

STARTCHAR icircumflex
ENCODING 238
SWIDTH 280 0
DWIDTH 4 0
BBX 4 10 1 0
BITMAP
60
D0
00
E0
40
40
40
C0
D0
60
ENDCHAR

STARTCHAR idieresis
ENCODING 239
SWIDTH 280 0
DWIDTH 4 0
BBX 4 9 1 0
BITMAP
F0
00
E0
40
40
40
C0
D0
60
ENDCHAR

STARTCHAR eth
ENCODING 240
SWIDTH 540 0
DWIDTH 8 0
BBX 7 11 1 0
BITMAP
0C
38
24
06
3E
66
C2
82
86
CC
78
ENDCHAR

STARTCHAR ntilde
ENCODING 241
SWIDTH 620 0
DWIDTH 9 0
BBX 9 9 1 0
BITMAP
1E00
0000
FE00
6200
4200
4600
4400
C480
8700
ENDCHAR

STARTCHAR ograve
ENCODING 242
SWIDTH 540 0
DWIDTH 8 0
BBX 7 10 1 0
BITMAP
10
0C
00
3C
66
C2
82
86
CC
78
ENDCHAR

STARTCHAR oacute
ENCODING 243
SWIDTH 540 0
DWIDTH 8 0
BBX 7 10 1 0
BITMAP
0C
18
00
3C
66
C2
82
86
CC
78
ENDCHAR

STARTCHAR ocircumflex
ENCODING 244
SWIDTH 540 0
DWIDTH 8 0
BBX 7 10 1 0
BITMAP
18
34
00
3C
66
C2
82
86
CC
78
ENDCHAR

STARTCHAR otilde
ENCODING 245
SWIDTH 540 0
DWIDTH 8 0
BBX 7 9 1 0
BITMAP
3C
00
3C
66
C2
82
86
CC
78
ENDCHAR

STARTCHAR odieresis
ENCODING 246
SWIDTH 540 0
DWIDTH 8 0
BBX 7 9 1 0
BITMAP
1E
00
3C
66
C2
82
86
CC
78
ENDCHAR

STARTCHAR divide
ENCODING 247
SWIDTH 600 0
DWIDTH 8 0
BBX 7 7 1 1
BITMAP
10
00
00
FE
00
00
10
ENDCHAR

STARTCHAR oslash
ENCODING 248
SWIDTH 540 0
DWIDTH 8 0
BBX 7 7 1 0
BITMAP
3E
66
CA
92
A6
CC
F8
ENDCHAR

STARTCHAR ugrave
ENCODING 249
SWIDTH 620 0
DWIDTH 9 0
BBX 8 10 1 0
BITMAP
10
0C
00
E2
42
42
46
C4
CD
77
ENDCHAR

STARTCHAR uacute
ENCODING 250
SWIDTH 620 0
DWIDTH 9 0
BBX 8 10 1 0
BITMAP
0C
18
00
E2
42
42
46
C4
CD
77
ENDCHAR

STARTCHAR ucircumflex
ENCODING 251
SWIDTH 620 0
DWIDTH 9 0
BBX 8 10 1 0
BITMAP
18
34
00
E2
42
42
46
C4
CD
77
ENDCHAR

STARTCHAR udieresis
ENCODING 252
SWIDTH 620 0
DWIDTH 9 0
BBX 8 9 1 0
BITMAP
1E
00
E2
42
42
46
C4
CD
77
ENDCHAR

STARTCHAR yacute
ENCODING 253
SWIDTH 600 0
DWIDTH 8 0
BBX 8 13 1 -3
BITMAP
06
0C
00
E3
62
42
42
42
46
7E
04
0C
F8
ENDCHAR

STARTCHAR thorn
ENCODING 254
SWIDTH 600 0
DWIDTH 8 0
BBX 9 13 0 -3
BITMAP
3800
1800
1000
1700
1880
1080
3080
2180
2300
3E00
2000
6000
F000
ENDCHAR

STARTCHAR ydieresis
ENCODING 255
SWIDTH 600 0
DWIDTH 8 0
BBX 8 12 1 -3
BITMAP
1E
00
E3
62
42
42
42
46
7E
04
0C
F8
ENDCHAR
ENDFONT
